<?xml version="1.0" encoding="UTF-8" standalone="no"?><!DOCTYPE svg PUBLIC "-//W3C//DTD SVG 1.1//EN" "http://www.w3.org/Graphics/SVG/1.1/DTD/svg11.dtd"><svg width="100%" height="100%" viewBox="0 0 512 512" version="1.1" xmlns="http://www.w3.org/2000/svg" xmlns:xlink="http://www.w3.org/1999/xlink" xml:space="preserve" xmlns:serif="http://www.serif.com/" style="fill-rule:evenodd;clip-rule:evenodd;stroke-linecap:round;stroke-linejoin:round;stroke-miterlimit:1.5;"><rect x="0" y="0" width="512" height="512" style="fill:rgb(0,45,56);stroke:rgb(0,45,56);stroke-width:1px;"/><g transform="matrix(1,0,0,1,-54.23362,-26.210386)"><g transform="matrix(791.666667,0,0,791.666667,78.300027,487.085061)"><path d="M0.2529296875,0.009765625C0.2138671875,0.009765625 0.180419921875,0.008626302083 0.152587890625,0.00634765625C0.124755859375,0.004069010417 0.099283854167,0.000325520833 0.076171875,-0.0048828125L0.087890625,-0.0986328125C0.1220703125,-0.093424479167 0.152262369792,-0.089518229167 0.178466796875,-0.0869140625C0.204671223958,-0.084309895833 0.2294921875,-0.0830078125 0.2529296875,-0.0830078125C0.305338541667,-0.0830078125 0.343343098958,-0.088134765625 0.366943359375,-0.098388671875C0.390543619792,-0.108642578125 0.40234375,-0.125 0.40234375,-0.1474609375C0.40234375,-0.1630859375 0.398193359375,-0.174723307292 0.389892578125,-0.182373046875C0.381591796875,-0.190022786458 0.368815104167,-0.195963541667 0.3515625,-0.2001953125L0.232421875,-0.23046875C0.181315104167,-0.243489583333 0.143798828125,-0.259602864583 0.119873046875,-0.27880859375C0.095947265625,-0.298014322917 0.083984375,-0.3271484375 0.083984375,-0.3662109375C0.083984375,-0.4228515625 0.105712890625,-0.4638671875 0.149169921875,-0.4892578125C0.192626953125,-0.5146484375 0.2626953125,-0.52734375 0.359375,-0.52734375C0.384440104167,-0.52734375 0.407796223958,-0.526611328125 0.429443359375,-0.525146484375C0.451090494792,-0.523681640625 0.473307291667,-0.521158854167 0.49609375,-0.517578125L0.4853515625,-0.427734375C0.458984375,-0.430338541667 0.435709635417,-0.43212890625 0.41552734375,-0.43310546875C0.395345052083,-0.43408203125 0.375651041667,-0.4345703125 0.3564453125,-0.4345703125C0.298502604167,-0.4345703125 0.256510416667,-0.429606119792 0.23046875,-0.419677734375C0.204427083333,-0.409749348958 0.19140625,-0.3935546875 0.19140625,-0.37109375C0.19140625,-0.356119791667 0.19677734375,-0.345296223958 0.20751953125,-0.338623046875C0.21826171875,-0.331949869792 0.234700520833,-0.325846354167 0.2568359375,-0.3203125L0.3525390625,-0.296875C0.406901041667,-0.283854166667 0.446695963542,-0.266438802083 0.471923828125,-0.24462890625C0.497151692708,-0.222819010417 0.509765625,-0.191080729167 0.509765625,-0.1494140625C0.509765625,-0.09375 0.489420572917,-0.053304036458 0.44873046875,-0.028076171875C0.408040364583,-0.002848307292 0.3427734375,0.009765625 0.2529296875,0.009765625Z" style="fill:rgb(152,167,168);fill-rule:nonzero;"/></g></g></svg>